<?xml version="1.0" encoding="utf-8"?>
<!-- Generator: Adobe Illustrator 17.0.1, SVG Export Plug-In . SVG Version: 6.00 Build 0)  -->
<!DOCTYPE svg PUBLIC "-//W3C//DTD SVG 1.1//EN" "http://www.w3.org/Graphics/SVG/1.1/DTD/svg11.dtd">
<svg version="1.1" id="Layer_1" xmlns="http://www.w3.org/2000/svg" xmlns:xlink="http://www.w3.org/1999/xlink" x="0px" y="0px"
	 width="249px" height="44.155px" viewBox="0 0 249 44.155" enable-background="new 0 0 249 44.155" xml:space="preserve">
<g>
	<g>
		<circle fill="#B52025" cx="23.646" cy="7.171" r="2.861"/>
		<path fill="#B52025" d="M4.859,15.896h8.285v4.682H4.859V43.02H0V12.199C0,7.864,1.159,4.57,3.41,2.545
			c2.079-1.907,6.38-2.66,9.849-2.255v4.452C11.006,4.57,7.862,4.974,6.705,6.072c-1.501,1.388-1.846,4.106-1.846,6.127V15.896z"/>
		<path fill="#B52025" d="M26.102,43.02h-4.911V15.896h4.911V43.02z"/>
		<path fill="#B52025" d="M120.29,12.665v4.565c-5.725-0.52-9.368,2.255-9.368,7.982V43.02h-4.852V25.325
			C106.07,16.305,112.486,11.738,120.29,12.665z"/>
		<path fill="#B52025" d="M84.512,39.291c4.219,0,7.223-2.025,8.845-5.494h5.205c-2.081,6.362-7.171,9.946-14.05,9.946
			c-8.561,0-15.266-6.825-15.266-15.553c0-8.619,6.705-15.67,14.974-15.67c7.693,0,15.092,6.36,15.033,16.94h-22.57l1.326-4.393
			h15.808c-1.214-4.859-5.263-8.095-9.598-8.095c-5.446,0-9.984,5.207-9.984,11.218C74.237,35.522,79.136,39.291,84.512,39.291z"/>
		<path fill="#333333" d="M234.256,39.291c4.222,0,7.229-2.025,8.843-5.494h5.207c-2.079,6.362-7.166,9.946-14.05,9.946
			c-8.561,0-15.264-6.825-15.264-15.553c0-8.619,6.703-15.67,14.974-15.67c7.688,0,15.094,6.36,15.033,16.94h-22.57l1.324-4.393
			h15.81c-1.216-4.859-5.266-8.095-9.598-8.095c-5.442,0-9.98,5.207-9.98,11.218C223.987,35.522,228.88,39.291,234.256,39.291z"/>
		<path fill="#B52025" d="M49.422,12.488c-2.759,0-5.352,0.89-7.498,2.4v5.699c1.892-2.201,4.565-3.589,7.44-3.589
			c5.494,0,10.003,4.859,10.003,11.046c0,6.301-4.509,11.157-10.003,11.157c-5.306,0-10.007-4.617-10.224-10.592h-0.011v-0.436
			V17.519v-4.276V0h-4.739v28.046c0,8.845,6.534,15.668,14.974,15.668c8.213,0,14.922-6.707,14.922-15.668
			C64.286,19.137,57.691,12.488,49.422,12.488z"/>
		<path fill="#333333" d="M212.165,12.52l-8.19,22.052l-8.188-22.052h-5.322l11.205,28.586c0.402,0.951,1.288,1.575,2.305,1.575
			c1.021,0,1.903-0.633,2.305-1.575l11.205-28.586H212.165z"/>
		<path fill="#333333" d="M173.412,12.42h-0.002l0,0c-0.032,0-0.063,0.005-0.093,0.005c-1.627,0.016-3.18,0.411-4.662,1.101
			c-10.927,5.037-18.981,25.603-29.434,25.603c-6.113,0-11.067-4.954-11.067-11.065s4.561-11.065,10.669-11.065
			c2.868,0,5.77,1.654,8.412,4.228c0.967-1.069,1.937-2.145,2.927-3.202c-3.625-3.521-6.821-5.605-10.94-5.605
			c-8.64,0-15.645,7.006-15.645,15.643l0,0c0,8.1,6.156,14.762,14.043,15.562c0.531,0.054,1.062,0.081,1.602,0.081
			c15.304,0,23.763-26.706,34.188-26.708c6.111,0,11.069,4.954,11.069,11.065s-4.561,11.065-10.674,11.065
			c-4.927,0-9.399-3.792-12.009-8.827c-0.9,1.139-2.077,2.554-2.942,3.607c2.208,4.872,7.777,9.799,14.556,9.799
			c8.637,0,15.643-7.004,15.643-15.643C189.053,19.426,182.047,12.42,173.412,12.42z"/>
	</g>
</g>
</svg>
